<svg xmlns="http://www.w3.org/2000/svg" xmlns:xlink="http://www.w3.org/1999/xlink" contentStyleType="text/css" height="636px" preserveAspectRatio="none" style="width:733px;height:636px;background:#FFFFFF;" version="1.1" viewBox="0 0 733 636" width="733px" zoomAndPan="magnify"><title>Arquitectura del Sports Management System</title><defs/><g><text fill="#000000" font-family="sans-serif" font-size="14" font-weight="bold" lengthAdjust="spacing" textLength="356.8564" x="181.0718" y="22.9951">Arquitectura del Sports Management System</text><!--cluster Frontend--><g id="cluster_Frontend"><path d="M473.5,43.2969 L546.7285,43.2969 A3.75,3.75 0 0 1 549.2285,45.7969 L556.2285,65.5938 L723.5,65.5938 A2.5,2.5 0 0 1 726,68.0938 L726,262.3869 A2.5,2.5 0 0 1 723.5,264.8869 L473.5,264.8869 A2.5,2.5 0 0 1 471,262.3869 L471,45.7969 A2.5,2.5 0 0 1 473.5,43.2969 " fill="none" style="stroke:#000000;stroke-width:1.5;"/><line style="stroke:#000000;stroke-width:1.5;" x1="471" x2="556.2285" y1="65.5938" y2="65.5938"/><text fill="#000000" font-family="sans-serif" font-size="14" font-weight="bold" lengthAdjust="spacing" textLength="72.2285" x="475" y="58.292">Frontend</text></g><!--cluster Backend (Node.js)--><g id="cluster_Backend (Node.js)"><path d="M8.5,177.5869 L153.6836,177.5869 A3.75,3.75 0 0 1 156.1836,180.0869 L163.1836,199.8838 L444.5,199.8838 A2.5,2.5 0 0 1 447,202.3838 L447,490.9769 A2.5,2.5 0 0 1 444.5,493.4769 L8.5,493.4769 A2.5,2.5 0 0 1 6,490.9769 L6,180.0869 A2.5,2.5 0 0 1 8.5,177.5869 " fill="none" style="stroke:#000000;stroke-width:1.5;"/><line style="stroke:#000000;stroke-width:1.5;" x1="6" x2="163.1836" y1="199.8838" y2="199.8838"/><text fill="#000000" font-family="sans-serif" font-size="14" font-weight="bold" lengthAdjust="spacing" textLength="144.1836" x="10" y="192.582">Backend (Node.js)</text></g><!--cluster Database (MongoDB)--><g id="cluster_Database (MongoDB)"><path d="M61.5,542.4769 L230.124,542.4769 A3.75,3.75 0 0 1 232.624,544.9769 L239.624,564.7738 L440.5,564.7738 A2.5,2.5 0 0 1 443,567.2738 L443,627.2769 A2.5,2.5 0 0 1 440.5,629.7769 L61.5,629.7769 A2.5,2.5 0 0 1 59,627.2769 L59,544.9769 A2.5,2.5 0 0 1 61.5,542.4769 " fill="none" style="stroke:#000000;stroke-width:1.5;"/><line style="stroke:#000000;stroke-width:1.5;" x1="59" x2="239.624" y1="564.7738" y2="564.7738"/><text fill="#000000" font-family="sans-serif" font-size="14" font-weight="bold" lengthAdjust="spacing" textLength="167.624" x="63" y="557.472">Database (MongoDB)</text></g><!--entity React Application--><g id="elem_React Application"><rect fill="#F1F1F1" height="36.2969" rx="2.5" ry="2.5" style="stroke:#181818;stroke-width:0.5;" width="142.7803" x="526.61" y="212.5869"/><text fill="#000000" font-family="sans-serif" font-size="14" lengthAdjust="spacing" textLength="122.7803" x="536.61" y="235.582">React Application</text></g><!--entity Tailwind CSS--><g id="elem_Tailwind CSS"><rect fill="#F1F1F1" height="36.2969" rx="2.5" ry="2.5" style="stroke:#181818;stroke-width:0.5;" width="110.0088" x="487" y="78.2969"/><text fill="#000000" font-family="sans-serif" font-size="14" lengthAdjust="spacing" textLength="90.0088" x="497" y="101.292">Tailwind CSS</text></g><!--entity Browser--><g id="elem_Browser"><rect fill="#F1F1F1" height="36.2969" rx="2.5" ry="2.5" style="stroke:#181818;stroke-width:0.5;" width="77.0391" x="632.48" y="78.2969"/><text fill="#000000" font-family="sans-serif" font-size="14" lengthAdjust="spacing" textLength="57.0391" x="642.48" y="101.292">Browser</text></g><!--entity Express API--><g id="elem_Express API"><rect fill="#F1F1F1" height="36.2969" rx="2.5" ry="2.5" style="stroke:#181818;stroke-width:0.5;" width="101.5732" x="258.21" y="327.8869"/><text fill="#000000" font-family="sans-serif" font-size="14" lengthAdjust="spacing" textLength="81.5732" x="268.21" y="350.882">Express API</text></g><!--entity Authentication Controller--><g id="elem_Authentication Controller"><rect fill="#F1F1F1" height="36.2969" rx="2.5" ry="2.5" style="stroke:#181818;stroke-width:0.5;" width="196.3945" x="21.8" y="441.1869"/><text fill="#000000" font-family="sans-serif" font-size="14" lengthAdjust="spacing" textLength="176.3945" x="31.8" y="464.182">Authentication Controller</text></g><!--entity Reservation Controller--><g id="elem_Reservation Controller"><rect fill="#F1F1F1" height="36.2969" rx="2.5" ry="2.5" style="stroke:#181818;stroke-width:0.5;" width="177.3086" x="253.35" y="441.1869"/><text fill="#000000" font-family="sans-serif" font-size="14" lengthAdjust="spacing" textLength="157.3086" x="263.35" y="464.182">Reservation Controller</text></g><!--entity Middleware (JWT)--><g id="elem_Middleware (JWT)"><rect fill="#F1F1F1" height="36.2969" rx="2.5" ry="2.5" style="stroke:#181818;stroke-width:0.5;" width="142.541" x="237.73" y="212.5869"/><text fill="#000000" font-family="sans-serif" font-size="14" lengthAdjust="spacing" textLength="122.541" x="247.73" y="235.582">Middleware (JWT)</text></g><!--entity Users Collection--><g id="elem_Users Collection"><rect fill="#F1F1F1" height="36.2969" rx="2.5" ry="2.5" style="stroke:#181818;stroke-width:0.5;" width="132.9023" x="74.55" y="577.4769"/><text fill="#000000" font-family="sans-serif" font-size="14" lengthAdjust="spacing" textLength="112.9023" x="84.55" y="600.472">Users Collection</text></g><!--entity Reservations Collection--><g id="elem_Reservations Collection"><rect fill="#F1F1F1" height="36.2969" rx="2.5" ry="2.5" style="stroke:#181818;stroke-width:0.5;" width="184.6777" x="242.66" y="577.4769"/><text fill="#000000" font-family="sans-serif" font-size="14" lengthAdjust="spacing" textLength="164.6777" x="252.66" y="600.472">Reservations Collection</text></g><!--link React Application to Express API--><g id="link_React Application_Express API"><path d="M553.16,249.3169 C498.94,270.5769 413.7959,303.9466 359.5259,325.2266 " fill="none" id="React Application-to-Express API" style="stroke:#181818;stroke-width:1;"/><polygon fill="#181818" points="353.94,327.4169,363.7791,327.8553,358.5949,325.5916,360.8587,320.4075,353.94,327.4169" style="stroke:#181818;stroke-width:1;"/><text fill="#000000" font-family="sans-serif" font-size="13" lengthAdjust="spacing" textLength="146.9927" x="471" y="293.9538">HTTP Requests (Axios)</text></g><!--link Express API to Authentication Controller--><g id="link_Express API_Authentication Controller"><path d="M279.05,364.6669 C243.66,385.5069 190.3105,416.9328 154.9805,437.7328 " fill="none" id="Express API-to-Authentication Controller" style="stroke:#181818;stroke-width:1;"/><polygon fill="#181818" points="149.81,440.7769,159.5951,439.6578,154.1187,438.2402,155.5364,432.7638,149.81,440.7769" style="stroke:#181818;stroke-width:1;"/><text fill="#000000" font-family="sans-serif" font-size="13" lengthAdjust="spacing" textLength="74.5977" x="227" y="407.2538">/api/users/*</text></g><!--link Express API to Reservation Controller--><g id="link_Express API_Reservation Controller"><path d="M314.16,364.4269 C320.32,385.2069 328.8761,414.0439 335.0661,434.9439 " fill="none" id="Express API-to-Reservation Controller" style="stroke:#181818;stroke-width:1;"/><polygon fill="#181818" points="336.77,440.6969,338.0495,430.9315,335.3501,435.9027,330.3789,433.2033,336.77,440.6969" style="stroke:#181818;stroke-width:1;"/><text fill="#000000" font-family="sans-serif" font-size="13" lengthAdjust="spacing" textLength="120.2627" x="328" y="407.2538">/api/reservations/*</text></g><!--link Authentication Controller to Users Collection--><g id="link_Authentication Controller_Users Collection"><path d="M122.75,477.8869 C126.77,503.6269 133.3042,545.3987 137.3242,571.1387 " fill="none" id="Authentication Controller-to-Users Collection" style="stroke:#181818;stroke-width:1;"/><polygon fill="#181818" points="138.25,577.0669,140.8133,567.5574,137.4785,572.1268,132.9091,568.7919,138.25,577.0669" style="stroke:#181818;stroke-width:1;"/><text fill="#000000" font-family="sans-serif" font-size="13" lengthAdjust="spacing" textLength="113.2358" x="131" y="522.5438">CRUD Operations</text></g><!--link Reservation Controller to Reservations Collection--><g id="link_Reservation Controller_Reservations Collection"><path d="M341.08,477.8869 C339.74,503.6269 337.5719,545.335 336.2319,571.075 " fill="none" id="Reservation Controller-to-Reservations Collection" style="stroke:#181818;stroke-width:1;"/><polygon fill="#181818" points="335.92,577.0669,340.3825,568.287,336.1799,572.0736,332.3933,567.8711,335.92,577.0669" style="stroke:#181818;stroke-width:1;"/><text fill="#000000" font-family="sans-serif" font-size="13" lengthAdjust="spacing" textLength="113.2358" x="340" y="522.5438">CRUD Operations</text></g><!--reverse link Middleware (JWT) to Express API--><g id="link_Middleware (JWT)_Express API"><path d="M309,254.9469 C309,276.2369 309,306.2969 309,327.6669 " fill="none" id="Middleware (JWT)-backto-Express API" style="stroke:#181818;stroke-width:1;stroke-dasharray:7.0,7.0;"/><polygon fill="#181818" points="309,248.9469,305,257.9469,309,253.9469,313,257.9469,309,248.9469" style="stroke:#181818;stroke-width:1;"/><text fill="#000000" font-family="sans-serif" font-size="13" lengthAdjust="spacing" textLength="100.9785" x="310" y="293.9538">Secures Routes</text></g><!--link Browser to React Application--><g id="link_Browser_React Application"><path d="M661.31,115.0069 C647.34,140.3169 624.6199,181.5042 610.6299,206.8442 " fill="none" id="Browser-to-React Application" style="stroke:#181818;stroke-width:1;"/><polygon fill="#181818" points="607.73,212.0969,615.5817,206.1512,610.1466,207.7197,608.5781,202.2846,607.73,212.0969" style="stroke:#181818;stroke-width:1;"/><text fill="#000000" font-family="sans-serif" font-size="13" lengthAdjust="spacing" textLength="55.6689" x="644" y="157.6538">Loads UI</text></g><!--SRC=[XP9FJy904CNl-oacN0GJu4wCIG6D65528HuCXx6TmCfsTzdT2iJutPto9m85lRKpVR_tzctzN6gB3ZD8J6QD9XtYi5O4ZfA0Ugf8Y2033oAto6NWQUuGKb8GM-E2Xpvgd5B6GeZNFb0cXCLapZEet3kZ0-cq0by2u6r8c0I8h5KomI2Dda0n7g5KIwbJwCJnf1YqdLbwSXFnVS1gymEZeFfiKcfy-DeEUhUoZho7QD3Rug8yp3ZDpW8w7C4PfGhU9WEJFy-k-Z9D5ItH4LGVNqUrO_yk1dn7pxk-qLFJRUy3Z1decSMSvFTG1pv7ou9v1KDIszLCMY_E5LEltvwShGKFez60fOkSF1TVZLRI-9eu_cgZkrm1KvfePJClGZUlpualDBHNkeE35O0_l3QuSZqjw0p7NNYnvBOOST7pDD2_eD8TmasZKIeofYJdTnYQF12hzZ_Stgzq6oruCfXw6FT-0000]--></g></svg>